<svg width="40" height="40" viewBox="0 0 40 40" fill="none" xmlns="http://www.w3.org/2000/svg">
    <rect width="40" height="40" rx="8" fill="#2563eb"/>
    <path d="M12 28V12H20C22.2091 12 24 13.7909 24 16C24 17.5 23.2 18.8 22 19.5C23.5 20.2 24.5 21.7 24.5 23.5C24.5 26.0376 22.5376 28 20 28H12ZM16 18H19C19.5523 18 20 17.5523 20 17C20 16.4477 19.5523 16 19 16H16V18ZM16 24H19C19.5523 24 20 23.5523 20 23C20 22.4477 19.5523 22 19 22H16V24Z" fill="white"/>
    <path d="M26 28V12H30L34 24H35V12H38V28H34L30 16H29V28H26Z" fill="white"/>
</svg>